<mxfile host="app.diagrams.net" agent="Mozilla/5.0 (Windows NT 10.0; Win64; x64) AppleWebKit/537.36 (KHTML, like Gecko) Chrome/131.0.0.0 Safari/537.36" version="26.0.5">
  <diagram id="C5RBs43oDa-KdzZeNtuy" name="Page-1">
    <mxGraphModel dx="1105" dy="586" grid="1" gridSize="10" guides="1" tooltips="1" connect="1" arrows="1" fold="1" page="1" pageScale="1" pageWidth="1169" pageHeight="1654" math="0" shadow="0">
      <root>
        <mxCell id="WIyWlLk6GJQsqaUBKTNV-0" />
        <mxCell id="WIyWlLk6GJQsqaUBKTNV-1" parent="WIyWlLk6GJQsqaUBKTNV-0" />
        <mxCell id="jDpVXlWUB0uNq4GJCid0-9" style="edgeStyle=orthogonalEdgeStyle;rounded=0;orthogonalLoop=1;jettySize=auto;html=1;entryX=0;entryY=0.5;entryDx=0;entryDy=0;" edge="1" parent="WIyWlLk6GJQsqaUBKTNV-1" source="WIyWlLk6GJQsqaUBKTNV-3" target="jDpVXlWUB0uNq4GJCid0-11">
          <mxGeometry relative="1" as="geometry">
            <mxPoint x="360" y="180" as="targetPoint" />
          </mxGeometry>
        </mxCell>
        <mxCell id="WIyWlLk6GJQsqaUBKTNV-3" value="web-front-service" style="rounded=1;whiteSpace=wrap;html=1;fontSize=12;glass=0;strokeWidth=1;shadow=0;" parent="WIyWlLk6GJQsqaUBKTNV-1" vertex="1">
          <mxGeometry x="353" y="144" width="120" height="40" as="geometry" />
        </mxCell>
        <mxCell id="jDpVXlWUB0uNq4GJCid0-2" style="edgeStyle=orthogonalEdgeStyle;rounded=0;orthogonalLoop=1;jettySize=auto;html=1;entryX=0;entryY=0.5;entryDx=0;entryDy=0;" edge="1" parent="WIyWlLk6GJQsqaUBKTNV-1" source="jDpVXlWUB0uNq4GJCid0-0" target="WIyWlLk6GJQsqaUBKTNV-3">
          <mxGeometry relative="1" as="geometry" />
        </mxCell>
        <mxCell id="jDpVXlWUB0uNq4GJCid0-7" style="edgeStyle=orthogonalEdgeStyle;rounded=0;orthogonalLoop=1;jettySize=auto;html=1;entryX=0;entryY=0.5;entryDx=0;entryDy=0;" edge="1" parent="WIyWlLk6GJQsqaUBKTNV-1" source="jDpVXlWUB0uNq4GJCid0-0" target="jDpVXlWUB0uNq4GJCid0-4">
          <mxGeometry relative="1" as="geometry" />
        </mxCell>
        <mxCell id="jDpVXlWUB0uNq4GJCid0-0" value="Customer" style="shape=umlActor;verticalLabelPosition=bottom;verticalAlign=top;html=1;outlineConnect=0;" vertex="1" parent="WIyWlLk6GJQsqaUBKTNV-1">
          <mxGeometry x="230" y="185" width="30" height="60" as="geometry" />
        </mxCell>
        <mxCell id="jDpVXlWUB0uNq4GJCid0-12" style="edgeStyle=orthogonalEdgeStyle;rounded=0;orthogonalLoop=1;jettySize=auto;html=1;entryX=0.5;entryY=0;entryDx=0;entryDy=0;" edge="1" parent="WIyWlLk6GJQsqaUBKTNV-1" source="jDpVXlWUB0uNq4GJCid0-3" target="jDpVXlWUB0uNq4GJCid0-11">
          <mxGeometry relative="1" as="geometry" />
        </mxCell>
        <mxCell id="jDpVXlWUB0uNq4GJCid0-3" value="web-backend-service" style="rounded=1;whiteSpace=wrap;html=1;" vertex="1" parent="WIyWlLk6GJQsqaUBKTNV-1">
          <mxGeometry x="562" y="96" width="128" height="40" as="geometry" />
        </mxCell>
        <mxCell id="jDpVXlWUB0uNq4GJCid0-26" style="edgeStyle=orthogonalEdgeStyle;rounded=0;orthogonalLoop=1;jettySize=auto;html=1;entryX=0;entryY=0.5;entryDx=0;entryDy=0;" edge="1" parent="WIyWlLk6GJQsqaUBKTNV-1" source="jDpVXlWUB0uNq4GJCid0-4" target="jDpVXlWUB0uNq4GJCid0-11">
          <mxGeometry relative="1" as="geometry" />
        </mxCell>
        <mxCell id="jDpVXlWUB0uNq4GJCid0-4" value="mobile-front-service" style="rounded=1;whiteSpace=wrap;html=1;fontSize=12;glass=0;strokeWidth=1;shadow=0;" vertex="1" parent="WIyWlLk6GJQsqaUBKTNV-1">
          <mxGeometry x="353" y="255" width="120" height="40" as="geometry" />
        </mxCell>
        <mxCell id="jDpVXlWUB0uNq4GJCid0-27" style="edgeStyle=orthogonalEdgeStyle;rounded=0;orthogonalLoop=1;jettySize=auto;html=1;entryX=0.5;entryY=1;entryDx=0;entryDy=0;" edge="1" parent="WIyWlLk6GJQsqaUBKTNV-1" source="jDpVXlWUB0uNq4GJCid0-8" target="jDpVXlWUB0uNq4GJCid0-11">
          <mxGeometry relative="1" as="geometry" />
        </mxCell>
        <mxCell id="jDpVXlWUB0uNq4GJCid0-8" value="mobile-backend-service" style="rounded=1;whiteSpace=wrap;html=1;" vertex="1" parent="WIyWlLk6GJQsqaUBKTNV-1">
          <mxGeometry x="558" y="311" width="136" height="40" as="geometry" />
        </mxCell>
        <mxCell id="jDpVXlWUB0uNq4GJCid0-20" style="edgeStyle=orthogonalEdgeStyle;rounded=0;orthogonalLoop=1;jettySize=auto;html=1;entryX=0;entryY=0.5;entryDx=0;entryDy=0;" edge="1" parent="WIyWlLk6GJQsqaUBKTNV-1" source="jDpVXlWUB0uNq4GJCid0-11" target="jDpVXlWUB0uNq4GJCid0-16">
          <mxGeometry relative="1" as="geometry" />
        </mxCell>
        <mxCell id="jDpVXlWUB0uNq4GJCid0-21" style="edgeStyle=orthogonalEdgeStyle;rounded=0;orthogonalLoop=1;jettySize=auto;html=1;entryX=0;entryY=0.5;entryDx=0;entryDy=0;" edge="1" parent="WIyWlLk6GJQsqaUBKTNV-1" source="jDpVXlWUB0uNq4GJCid0-11" target="jDpVXlWUB0uNq4GJCid0-17">
          <mxGeometry relative="1" as="geometry" />
        </mxCell>
        <mxCell id="jDpVXlWUB0uNq4GJCid0-22" style="edgeStyle=orthogonalEdgeStyle;rounded=0;orthogonalLoop=1;jettySize=auto;html=1;" edge="1" parent="WIyWlLk6GJQsqaUBKTNV-1" source="jDpVXlWUB0uNq4GJCid0-11" target="jDpVXlWUB0uNq4GJCid0-18">
          <mxGeometry relative="1" as="geometry" />
        </mxCell>
        <mxCell id="jDpVXlWUB0uNq4GJCid0-23" style="edgeStyle=orthogonalEdgeStyle;rounded=0;orthogonalLoop=1;jettySize=auto;html=1;entryX=0;entryY=0.5;entryDx=0;entryDy=0;" edge="1" parent="WIyWlLk6GJQsqaUBKTNV-1" source="jDpVXlWUB0uNq4GJCid0-11" target="jDpVXlWUB0uNq4GJCid0-19">
          <mxGeometry relative="1" as="geometry" />
        </mxCell>
        <mxCell id="jDpVXlWUB0uNq4GJCid0-28" style="edgeStyle=orthogonalEdgeStyle;rounded=0;orthogonalLoop=1;jettySize=auto;html=1;entryX=0.5;entryY=1;entryDx=0;entryDy=0;" edge="1" parent="WIyWlLk6GJQsqaUBKTNV-1" source="jDpVXlWUB0uNq4GJCid0-11" target="jDpVXlWUB0uNq4GJCid0-3">
          <mxGeometry relative="1" as="geometry" />
        </mxCell>
        <mxCell id="jDpVXlWUB0uNq4GJCid0-29" style="edgeStyle=orthogonalEdgeStyle;rounded=0;orthogonalLoop=1;jettySize=auto;html=1;entryX=0.5;entryY=0;entryDx=0;entryDy=0;" edge="1" parent="WIyWlLk6GJQsqaUBKTNV-1" source="jDpVXlWUB0uNq4GJCid0-11" target="jDpVXlWUB0uNq4GJCid0-8">
          <mxGeometry relative="1" as="geometry" />
        </mxCell>
        <mxCell id="jDpVXlWUB0uNq4GJCid0-31" style="edgeStyle=orthogonalEdgeStyle;rounded=0;orthogonalLoop=1;jettySize=auto;html=1;entryX=0;entryY=0.5;entryDx=0;entryDy=0;" edge="1" parent="WIyWlLk6GJQsqaUBKTNV-1" source="jDpVXlWUB0uNq4GJCid0-11" target="jDpVXlWUB0uNq4GJCid0-30">
          <mxGeometry relative="1" as="geometry" />
        </mxCell>
        <mxCell id="jDpVXlWUB0uNq4GJCid0-33" style="edgeStyle=orthogonalEdgeStyle;rounded=0;orthogonalLoop=1;jettySize=auto;html=1;entryX=0;entryY=0.5;entryDx=0;entryDy=0;" edge="1" parent="WIyWlLk6GJQsqaUBKTNV-1" source="jDpVXlWUB0uNq4GJCid0-11" target="jDpVXlWUB0uNq4GJCid0-32">
          <mxGeometry relative="1" as="geometry" />
        </mxCell>
        <mxCell id="jDpVXlWUB0uNq4GJCid0-11" value="API gateway" style="rounded=1;whiteSpace=wrap;html=1;fontSize=12;glass=0;strokeWidth=1;shadow=0;" vertex="1" parent="WIyWlLk6GJQsqaUBKTNV-1">
          <mxGeometry x="566" y="200" width="120" height="40" as="geometry" />
        </mxCell>
        <mxCell id="jDpVXlWUB0uNq4GJCid0-24" style="edgeStyle=orthogonalEdgeStyle;rounded=0;orthogonalLoop=1;jettySize=auto;html=1;entryX=1;entryY=0.5;entryDx=0;entryDy=0;" edge="1" parent="WIyWlLk6GJQsqaUBKTNV-1" source="jDpVXlWUB0uNq4GJCid0-16" target="jDpVXlWUB0uNq4GJCid0-11">
          <mxGeometry relative="1" as="geometry" />
        </mxCell>
        <mxCell id="jDpVXlWUB0uNq4GJCid0-16" value="order-service" style="rounded=1;whiteSpace=wrap;html=1;" vertex="1" parent="WIyWlLk6GJQsqaUBKTNV-1">
          <mxGeometry x="780" y="23.5" width="128" height="40" as="geometry" />
        </mxCell>
        <mxCell id="jDpVXlWUB0uNq4GJCid0-17" value="payment-service" style="rounded=1;whiteSpace=wrap;html=1;" vertex="1" parent="WIyWlLk6GJQsqaUBKTNV-1">
          <mxGeometry x="780" y="95" width="128" height="40" as="geometry" />
        </mxCell>
        <mxCell id="jDpVXlWUB0uNq4GJCid0-18" value="delivery-service" style="rounded=1;whiteSpace=wrap;html=1;" vertex="1" parent="WIyWlLk6GJQsqaUBKTNV-1">
          <mxGeometry x="780" y="165" width="128" height="40" as="geometry" />
        </mxCell>
        <mxCell id="jDpVXlWUB0uNq4GJCid0-19" value="product-service" style="rounded=1;whiteSpace=wrap;html=1;" vertex="1" parent="WIyWlLk6GJQsqaUBKTNV-1">
          <mxGeometry x="780" y="235" width="128" height="40" as="geometry" />
        </mxCell>
        <mxCell id="jDpVXlWUB0uNq4GJCid0-30" value="promotion-service" style="rounded=1;whiteSpace=wrap;html=1;" vertex="1" parent="WIyWlLk6GJQsqaUBKTNV-1">
          <mxGeometry x="780" y="310" width="128" height="40" as="geometry" />
        </mxCell>
        <mxCell id="jDpVXlWUB0uNq4GJCid0-32" value="store-service" style="rounded=1;whiteSpace=wrap;html=1;" vertex="1" parent="WIyWlLk6GJQsqaUBKTNV-1">
          <mxGeometry x="780" y="383" width="128" height="40" as="geometry" />
        </mxCell>
      </root>
    </mxGraphModel>
  </diagram>
</mxfile>
